<mxfile host="app.diagrams.net" agent="Mozilla/5.0 (Windows NT 10.0; Win64; x64) AppleWebKit/537.36 (KHTML, like Gecko) Chrome/131.0.0.0 Safari/537.36" version="24.8.3">
  <diagram name="ページ1" id="po1-infJ_Jdo-S2Rf6da">
    <mxGraphModel dx="1066" dy="673" grid="1" gridSize="10" guides="1" tooltips="1" connect="1" arrows="1" fold="1" page="1" pageScale="1" pageWidth="827" pageHeight="1169" math="0" shadow="0">
      <root>
        <mxCell id="0" />
        <mxCell id="1" parent="0" />
        <mxCell id="IkuYoibd-J3LPYOS8CCM-3" value="" style="image;html=1;image=img/lib/clip_art/networking/Cloud_Server_128x128.png" vertex="1" parent="1">
          <mxGeometry x="320" y="320" width="80" height="80" as="geometry" />
        </mxCell>
        <mxCell id="IkuYoibd-J3LPYOS8CCM-4" value="&lt;font style=&quot;font-size: 14px;&quot;&gt;Vercel&lt;/font&gt;" style="text;strokeColor=none;fillColor=none;html=1;fontSize=24;fontStyle=1;verticalAlign=middle;align=center;spacing=2;" vertex="1" parent="1">
          <mxGeometry x="325" y="380" width="70" height="30" as="geometry" />
        </mxCell>
        <mxCell id="IkuYoibd-J3LPYOS8CCM-5" value="" style="shape=cylinder3;whiteSpace=wrap;html=1;boundedLbl=1;backgroundOutline=1;size=15;" vertex="1" parent="1">
          <mxGeometry x="487.5" y="320" width="60" height="80" as="geometry" />
        </mxCell>
        <mxCell id="IkuYoibd-J3LPYOS8CCM-6" value="&lt;font style=&quot;font-size: 14px;&quot;&gt;Supabase&lt;/font&gt;" style="text;strokeColor=none;fillColor=none;html=1;fontSize=24;fontStyle=1;verticalAlign=middle;align=center;" vertex="1" parent="1">
          <mxGeometry x="482.5" y="390" width="70" height="30" as="geometry" />
        </mxCell>
        <mxCell id="IkuYoibd-J3LPYOS8CCM-7" value="" style="endArrow=classic;startArrow=classic;html=1;rounded=0;entryX=0;entryY=0.5;entryDx=0;entryDy=0;" edge="1" parent="1" target="IkuYoibd-J3LPYOS8CCM-3">
          <mxGeometry width="50" height="50" relative="1" as="geometry">
            <mxPoint x="120" y="360" as="sourcePoint" />
            <mxPoint x="170" y="310" as="targetPoint" />
          </mxGeometry>
        </mxCell>
        <mxCell id="IkuYoibd-J3LPYOS8CCM-11" value="" style="dashed=0;outlineConnect=0;html=1;align=center;labelPosition=center;verticalLabelPosition=bottom;verticalAlign=top;shape=mxgraph.weblogos.github" vertex="1" parent="1">
          <mxGeometry x="480" y="200" width="75" height="75" as="geometry" />
        </mxCell>
        <mxCell id="IkuYoibd-J3LPYOS8CCM-12" value="" style="endArrow=classic;startArrow=classic;html=1;rounded=0;exitX=0.5;exitY=0;exitDx=0;exitDy=0;" edge="1" parent="1" source="IkuYoibd-J3LPYOS8CCM-3" target="IkuYoibd-J3LPYOS8CCM-11">
          <mxGeometry width="50" height="50" relative="1" as="geometry">
            <mxPoint x="360" y="310" as="sourcePoint" />
            <mxPoint x="470" y="230" as="targetPoint" />
            <Array as="points">
              <mxPoint x="360" y="240" />
            </Array>
          </mxGeometry>
        </mxCell>
        <mxCell id="IkuYoibd-J3LPYOS8CCM-13" value="&lt;font style=&quot;font-size: 14px;&quot;&gt;GitHub Actions&lt;/font&gt;" style="text;strokeColor=none;fillColor=none;html=1;fontSize=24;fontStyle=1;verticalAlign=middle;align=center;" vertex="1" parent="1">
          <mxGeometry x="482.5" y="275" width="70" height="30" as="geometry" />
        </mxCell>
        <mxCell id="IkuYoibd-J3LPYOS8CCM-14" value="" style="endArrow=classic;startArrow=classic;html=1;rounded=0;exitX=1;exitY=0.5;exitDx=0;exitDy=0;entryX=0;entryY=0.5;entryDx=0;entryDy=0;entryPerimeter=0;" edge="1" parent="1" source="IkuYoibd-J3LPYOS8CCM-3" target="IkuYoibd-J3LPYOS8CCM-5">
          <mxGeometry width="50" height="50" relative="1" as="geometry">
            <mxPoint x="390" y="350" as="sourcePoint" />
            <mxPoint x="440" y="300" as="targetPoint" />
          </mxGeometry>
        </mxCell>
        <mxCell id="IkuYoibd-J3LPYOS8CCM-15" value="" style="image;html=1;image=img/lib/clip_art/networking/Cloud_Server_128x128.png" vertex="1" parent="1">
          <mxGeometry x="480" y="440" width="80" height="80" as="geometry" />
        </mxCell>
        <mxCell id="IkuYoibd-J3LPYOS8CCM-16" value="&lt;font style=&quot;font-size: 14px;&quot;&gt;Dify&amp;nbsp;&lt;/font&gt;&lt;span style=&quot;font-size: 14px; background-color: initial;&quot;&gt;Web API&lt;/span&gt;" style="text;strokeColor=none;fillColor=none;html=1;fontSize=24;fontStyle=1;verticalAlign=middle;align=center;" vertex="1" parent="1">
          <mxGeometry x="447.5" y="500" width="140" height="30" as="geometry" />
        </mxCell>
        <mxCell id="IkuYoibd-J3LPYOS8CCM-17" value="" style="endArrow=classic;startArrow=classic;html=1;rounded=0;" edge="1" parent="1">
          <mxGeometry width="50" height="50" relative="1" as="geometry">
            <mxPoint x="360" y="440" as="sourcePoint" />
            <mxPoint x="480" y="480" as="targetPoint" />
            <Array as="points">
              <mxPoint x="360" y="480" />
            </Array>
          </mxGeometry>
        </mxCell>
        <mxCell id="IkuYoibd-J3LPYOS8CCM-18" value="&lt;font style=&quot;font-size: 14px;&quot;&gt;Next.js + TypeScript&lt;/font&gt;" style="text;strokeColor=none;fillColor=none;html=1;fontSize=24;fontStyle=1;verticalAlign=middle;align=center;spacing=2;" vertex="1" parent="1">
          <mxGeometry x="325" y="400" width="70" height="30" as="geometry" />
        </mxCell>
        <mxCell id="IkuYoibd-J3LPYOS8CCM-19" value="" style="sketch=0;outlineConnect=0;fontColor=#232F3E;gradientColor=none;fillColor=#232F3D;strokeColor=none;dashed=0;verticalLabelPosition=bottom;verticalAlign=top;align=center;html=1;fontSize=12;fontStyle=0;aspect=fixed;pointerEvents=1;shape=mxgraph.aws4.user;" vertex="1" parent="1">
          <mxGeometry x="40" y="320" width="78" height="78" as="geometry" />
        </mxCell>
        <mxCell id="IkuYoibd-J3LPYOS8CCM-20" value="&lt;font style=&quot;font-size: 14px;&quot;&gt;User&lt;/font&gt;" style="text;strokeColor=none;fillColor=none;html=1;fontSize=24;fontStyle=1;verticalAlign=middle;align=center;" vertex="1" parent="1">
          <mxGeometry x="44" y="400" width="70" height="30" as="geometry" />
        </mxCell>
        <mxCell id="IkuYoibd-J3LPYOS8CCM-21" value="" style="sketch=0;outlineConnect=0;fontColor=#232F3E;gradientColor=none;fillColor=#232F3D;strokeColor=none;dashed=0;verticalLabelPosition=bottom;verticalAlign=top;align=center;html=1;fontSize=12;fontStyle=0;aspect=fixed;pointerEvents=1;shape=mxgraph.aws4.user;" vertex="1" parent="1">
          <mxGeometry x="660" y="195" width="78" height="78" as="geometry" />
        </mxCell>
        <mxCell id="IkuYoibd-J3LPYOS8CCM-22" value="&lt;font style=&quot;font-size: 14px;&quot;&gt;Deleloper&lt;/font&gt;" style="text;strokeColor=none;fillColor=none;html=1;fontSize=24;fontStyle=1;verticalAlign=middle;align=center;" vertex="1" parent="1">
          <mxGeometry x="664" y="275" width="70" height="30" as="geometry" />
        </mxCell>
        <mxCell id="IkuYoibd-J3LPYOS8CCM-23" value="" style="endArrow=classic;html=1;rounded=0;" edge="1" parent="1">
          <mxGeometry width="50" height="50" relative="1" as="geometry">
            <mxPoint x="659.9954545454545" y="238.95063424947142" as="sourcePoint" />
            <mxPoint x="570" y="239" as="targetPoint" />
          </mxGeometry>
        </mxCell>
      </root>
    </mxGraphModel>
  </diagram>
</mxfile>
